<svg width="102" height="100" viewBox="0 0 102 100" fill="none" xmlns="http://www.w3.org/2000/svg">
    <g clip-path="url(#clip0_2_70)">
        <path d="M91.3343 49.9534L92.1322 49.1531C103.326 37.957 103.328 19.7388 92.1322 8.5416C80.9369 -2.65563 62.7217 -2.65563 51.5264 8.5416L50.7273 9.33966L49.9294 8.5416C38.734 -2.65563 20.5178 -2.65563 9.32244 8.5416C-1.87292 19.7388 -1.87292 37.957 9.32354 49.1531L10.1215 49.9534L9.32354 50.7515C-1.87292 61.9487 -1.87292 80.1658 9.32244 91.3652C20.5189 102.561 38.7352 102.561 49.9294 91.3652L50.7273 90.5661L51.5264 91.3652C62.7217 102.561 80.9369 102.561 92.1322 91.3652C103.328 80.1658 103.326 61.9487 92.1322 50.7515L91.3343 49.9534ZM55.0612 12.0781C64.3065 2.83119 79.3499 2.83119 88.5941 12.0781C97.8395 21.325 97.8395 36.372 88.5952 45.6178L61.677 72.5405C59.6163 74.6026 59.1139 77.0488 61.5564 79.5205L62.476 80.4126C67.6332 85.5707 76.0242 85.5707 81.1814 80.4126C86.3387 75.2546 86.3387 66.8611 81.1826 61.703L80.3835 60.9038L82.3213 58.9668L83.1204 59.7659C89.3478 65.9922 89.3478 76.1257 83.1204 82.3519C76.8952 88.5781 66.7623 88.5781 60.5371 82.3519C60.5371 82.3519 60.1453 82.022 59.6152 81.4885C59.1283 80.9937 54.2776 76.0659 59.7392 70.6023L86.6563 43.6796C94.8337 35.502 94.8337 22.1961 86.6563 14.0174C78.48 5.8408 65.1775 5.8408 57.0012 14.0185L56.2011 14.8165L54.2621 12.8784L55.0612 12.0781ZM77.6455 76.8772C74.4372 80.0839 69.218 80.0839 66.0097 76.8772L65.2118 76.0781L76.8465 64.4414L77.6455 65.2384C80.8528 68.4483 80.8528 73.6673 77.6455 76.8772ZM12.8583 12.0781C22.1037 2.83119 37.1481 2.83119 46.3935 12.0781L73.3095 38.9986L71.3706 40.9401L44.4535 14.0174C36.2761 5.8397 22.9747 5.8397 14.7984 14.0174C6.62099 22.195 6.62099 35.5008 14.7984 43.6785L15.5963 44.4777L13.6574 46.4169L12.8583 45.6189C3.61298 36.372 3.61298 21.3261 12.8583 12.0781ZM65.2129 23.8277L66.0108 23.0285C69.218 19.8207 74.4372 19.8207 77.6467 23.0285C80.8528 26.2362 80.8528 31.4552 77.6467 34.6663L76.8476 35.4643L65.2129 23.8277ZM22.8385 59.1361L20.2721 61.7019C15.1138 66.86 15.1149 75.2534 20.2721 80.4115C25.4282 85.5696 33.8203 85.5696 38.9775 80.4115L39.7766 79.6124C43.7175 75.673 38.9742 71.7491 36.6922 69.4656L35.2059 67.9668L28.1418 60.9016L30.0808 58.9646L39.4766 68.3609L40.2181 69.1047C47.1261 76.0106 42.2511 81.0148 41.7155 81.5505L40.9165 82.3497C34.6902 88.5792 24.5595 88.5759 18.3321 82.3497C12.1069 76.1235 12.1069 65.9899 18.3332 59.7615L45.2525 32.8399L47.1903 34.7814L33.7871 48.1846L22.8385 59.1361ZM24.6059 64.4425L36.2407 76.0759L35.4416 76.8761C32.2333 80.0828 27.0152 80.085 23.808 76.8761C20.6008 73.6684 20.6008 68.4472 23.808 65.2395L24.6059 64.4425ZM50.7262 38.3168L62.3598 49.9534L50.7262 61.5879L39.0915 49.9534L50.7262 38.3168ZM38.9786 19.4942C33.8214 14.3339 25.4293 14.3361 20.2732 19.4942C15.116 24.6501 15.1149 33.0447 20.2732 38.2027L21.0711 39.0019L19.1322 40.9401L18.3332 40.142C12.1069 33.9136 12.108 23.7812 18.3332 17.5527C24.5606 11.3265 34.6913 11.3254 40.9176 17.5527L67.8358 44.4755L65.8968 46.4147L38.9786 19.4942ZM36.2407 23.8288L24.6059 35.4643L23.808 34.6663C20.5997 31.4574 20.5997 26.2373 23.8069 23.0285C27.0141 19.8207 32.2333 19.8207 35.4416 23.0307L36.2407 23.8288ZM88.5941 87.8276C79.3499 97.0745 64.3065 97.0745 55.0612 87.8276L54.0552 86.9277C53.836 86.7075 51.9823 84.8656 50.6167 82.0198C49.3428 84.7095 47.6518 86.5536 47.1925 87.0285L46.3935 87.8276C37.1481 97.0745 22.1037 97.0745 12.8583 87.8276C3.61298 78.5807 3.61298 63.5349 12.8583 54.2858L39.7766 27.3653L41.7155 29.3056L14.7984 56.2272C6.62099 64.406 6.62099 77.7107 14.7984 85.8884C22.9747 94.0671 36.2772 94.0671 44.4535 85.8884L45.2957 85.0449C47.4183 82.8411 49.0208 79.4397 49.1392 75.9364C49.1392 75.8335 49.147 75.7305 49.1492 75.6298C49.1735 72.8914 48.2771 70.1164 45.984 67.8207C44.563 66.3995 41.7122 63.5482 41.7122 63.5482L41.3016 63.1109L33.6189 55.4281L35.5578 53.4877L46.285 64.2167L47.1848 65.1332C48.7762 66.726 49.9062 68.3111 50.6831 69.8585C51.4633 68.3664 52.57 66.8367 54.116 65.2893L54.2643 65.1255L81.1837 38.2039C86.3398 33.0458 86.3398 24.6512 81.1826 19.4931C76.0264 14.335 67.6344 14.335 62.4771 19.4931L61.6781 20.2934L59.7403 18.3541L60.5382 17.5538C66.7634 11.3276 76.8963 11.3276 83.1215 17.5538C89.3489 23.7823 89.3489 33.9147 83.1215 40.1409L56.2 67.0647L55.3511 67.917C49.9637 73.3053 52.0797 81.0214 56.0196 84.9597L57.0001 85.8884C65.1764 94.0671 78.4789 94.0671 86.6552 85.8884C94.8326 77.7107 94.8326 64.406 86.6552 56.2272L85.8561 55.4281L87.7951 53.4877L88.5941 54.288C97.8395 63.5349 97.8395 78.5796 88.5941 87.8276Z" fill="#0B3C49"/>
    </g>
    <defs>
        <clipPath id="clip0_2_70">
            <rect width="101.562" height="100" fill="white"/>
        </clipPath>
    </defs>
</svg>
